<svg xmlns="http://www.w3.org/2000/svg"  viewBox="0 0 100 100" width="100px" height="100px"><path fill="#c7ede6" d="M87.215,56.71C88.35,54.555,89,52.105,89,49.5c0-6.621-4.159-12.257-10.001-14.478 C78.999,35.015,79,35.008,79,35c0-11.598-9.402-21-21-21c-9.784,0-17.981,6.701-20.313,15.757C36.211,29.272,34.638,29,33,29 c-7.692,0-14.023,5.793-14.89,13.252C12.906,43.353,9,47.969,9,53.5C9,59.851,14.149,65,20.5,65c0.177,0,0.352-0.012,0.526-0.022 C21.022,65.153,21,65.324,21,65.5C21,76.822,30.178,86,41.5,86c6.437,0,12.175-2.972,15.934-7.614C59.612,80.611,62.64,82,66,82 c4.65,0,8.674-2.65,10.666-6.518C77.718,75.817,78.837,76,80,76c6.075,0,11-4.925,11-11C91,61.689,89.53,58.727,87.215,56.71z"/><path fill="#fdfcef" d="M79.875,55.5c0,0,3.64,0,6.125,0s4.5-2.015,4.5-4.5c0-2.333-1.782-4.229-4.055-4.455 C86.467,46.364,86.5,46.187,86.5,46c0-2.485-2.015-4.5-4.5-4.5c-1.438,0-2.703,0.686-3.527,1.736 C78.333,40.6,76.171,38.5,73.5,38.5c-2.761,0-5,2.239-5,5c0,0.446,0.077,0.87,0.187,1.282C68.045,44.005,67.086,43.5,66,43.5 c-1.781,0-3.234,1.335-3.455,3.055C62.364,46.533,62.187,46.5,62,46.5c-2.485,0-4.5,2.015-4.5,4.5s2.015,4.5,4.5,4.5s9.5,0,9.5,0 h5.375V56h3V55.5z"/><path fill="#472b29" d="M73.5,38c-3.033,0-5.5,2.467-5.5,5.5c0,0.016,0,0.031,0,0.047C67.398,43.192,66.71,43,66,43 c-1.831,0-3.411,1.261-3.858,3.005C62.095,46.002,62.048,46,62,46c-2.757,0-5,2.243-5,5s2.243,5,5,5h14.875 c0.276,0,0.5-0.224,0.5-0.5s-0.224-0.5-0.5-0.5H62c-2.206,0-4-1.794-4-4s1.794-4,4-4c0.117,0,0.23,0.017,0.343,0.032l0.141,0.019 c0.021,0.003,0.041,0.004,0.062,0.004c0.246,0,0.462-0.185,0.495-0.437C63.232,45.125,64.504,44,66,44 c0.885,0,1.723,0.401,2.301,1.1c0.098,0.118,0.241,0.182,0.386,0.182c0.078,0,0.156-0.018,0.228-0.056 c0.209-0.107,0.314-0.346,0.254-0.573C69.054,44.218,69,43.852,69,43.5c0-2.481,2.019-4.5,4.5-4.5 c2.381,0,4.347,1.872,4.474,4.263c0.011,0.208,0.15,0.387,0.349,0.45c0.05,0.016,0.101,0.024,0.152,0.024 c0.15,0,0.296-0.069,0.392-0.192C79.638,42.563,80.779,42,82,42c2.206,0,4,1.794,4,4c0,0.117-0.017,0.23-0.032,0.343l-0.019,0.141 c-0.016,0.134,0.022,0.268,0.106,0.373c0.084,0.105,0.207,0.172,0.34,0.185C88.451,47.247,90,48.949,90,51c0,2.206-1.794,4-4,4 h-6.125c-0.276,0-0.5,0.224-0.5,0.5s0.224,0.5,0.5,0.5H86c2.757,0,5-2.243,5-5c0-2.397-1.689-4.413-4.003-4.877 C86.999,46.082,87,46.041,87,46c0-2.757-2.243-5-5-5c-1.176,0-2.293,0.416-3.183,1.164C78.219,39.76,76.055,38,73.5,38L73.5,38z"/><path fill="#472b29" d="M72 45c-1.403 0-2.609.999-2.913 2.341C68.72 47.119 68.301 47 67.875 47c-1.202 0-2.198.897-2.353 2.068C65.319 49.022 65.126 49 64.938 49c-1.529 0-2.811 1.2-2.918 2.732C62.01 51.87 62.114 51.99 62.251 52c.006 0 .012 0 .018 0 .13 0 .24-.101.249-.232.089-1.271 1.151-2.268 2.419-2.268.229 0 .47.042.738.127.022.007.045.01.067.01.055 0 .11-.02.156-.054C65.962 49.537 66 49.455 66 49.375c0-1.034.841-1.875 1.875-1.875.447 0 .885.168 1.231.473.047.041.106.063.165.063.032 0 .063-.006.093-.019.088-.035.148-.117.155-.212C69.623 46.512 70.712 45.5 72 45.5c.208 0 .425.034.682.107.023.007.047.01.07.01.109 0 .207-.073.239-.182.038-.133-.039-.271-.172-.309C72.517 45.04 72.256 45 72 45L72 45zM85.883 46.5c-1.326 0-2.508.897-2.874 2.182-.038.133.039.271.172.309C83.205 48.997 83.228 49 83.25 49c.109 0 .209-.072.24-.182C83.795 47.748 84.779 47 85.883 47c.117 0 .23.014.342.029.012.002.023.003.035.003.121 0 .229-.092.246-.217.019-.137-.077-.263-.214-.281C86.158 46.516 86.022 46.5 85.883 46.5L85.883 46.5z"/><path fill="#fff" d="M15.405 51H5.5C5.224 51 5 50.776 5 50.5S5.224 50 5.5 50h9.905c.276 0 .5.224.5.5S15.682 51 15.405 51zM18.5 51h-1c-.276 0-.5-.224-.5-.5s.224-.5.5-.5h1c.276 0 .5.224.5.5S18.777 51 18.5 51zM23.491 53H14.5c-.276 0-.5-.224-.5-.5s.224-.5.5-.5h8.991c.276 0 .5.224.5.5S23.767 53 23.491 53zM12.5 53h-1c-.276 0-.5-.224-.5-.5s.224-.5.5-.5h1c.276 0 .5.224.5.5S12.777 53 12.5 53zM9.5 53h-2C7.224 53 7 52.776 7 52.5S7.224 52 7.5 52h2c.276 0 .5.224.5.5S9.777 53 9.5 53zM15.5 55h-2c-.276 0-.5-.224-.5-.5s.224-.5.5-.5h2c.276 0 .5.224.5.5S15.776 55 15.5 55zM18.5 46c-.177 0-.823 0-1 0-.276 0-.5.224-.5.5 0 .276.224.5.5.5.177 0 .823 0 1 0 .276 0 .5-.224.5-.5C19 46.224 18.776 46 18.5 46zM18.5 48c-.177 0-4.823 0-5 0-.276 0-.5.224-.5.5 0 .276.224.5.5.5.177 0 4.823 0 5 0 .276 0 .5-.224.5-.5C19 48.224 18.776 48 18.5 48zM23.5 50c-.177 0-2.823 0-3 0-.276 0-.5.224-.5.5 0 .276.224.5.5.5.177 0 2.823 0 3 0 .276 0 .5-.224.5-.5C24 50.224 23.776 50 23.5 50zM72.5 24h-10c-.276 0-.5-.224-.5-.5s.224-.5.5-.5h10c.276 0 .5.224.5.5S72.776 24 72.5 24zM76.5 24h-2c-.276 0-.5-.224-.5-.5s.224-.5.5-.5h2c.276 0 .5.224.5.5S76.776 24 76.5 24zM81.5 26h-10c-.276 0-.5-.224-.5-.5s.224-.5.5-.5h10c.276 0 .5.224.5.5S81.777 26 81.5 26zM69.5 26h-1c-.276 0-.5-.224-.5-.5s.224-.5.5-.5h1c.276 0 .5.224.5.5S69.776 26 69.5 26zM66.375 26H64.5c-.276 0-.5-.224-.5-.5s.224-.5.5-.5h1.875c.276 0 .5.224.5.5S66.651 26 66.375 26zM75.5 22h-5c-.276 0-.5-.224-.5-.5s.224-.5.5-.5h5c.276 0 .5.224.5.5S75.777 22 75.5 22zM72.5 28h-2c-.276 0-.5-.224-.5-.5s.224-.5.5-.5h2c.276 0 .5.224.5.5S72.776 28 72.5 28z"/><g><path fill="#fed5b3" d="M29,64V36c0-4.418,3.582-8,8-8h28c4.418,0,8,3.582,8,8v28c0,4.418-3.582,8-8,8H37 C32.582,72,29,68.418,29,64z"/></g><g><path fill="#d68f53" d="M66.083,28.957H35.917c-3.292,0-5.96,2.668-5.96,5.96v6.833h42.087v-6.833 C72.043,31.625,69.375,28.957,66.083,28.957z"/></g><g><path fill="#472b29" d="M61.5,42h-31c-0.276,0-0.5-0.224-0.5-0.5s0.224-0.5,0.5-0.5h31c0.276,0,0.5,0.224,0.5,0.5 S61.776,42,61.5,42z"/></g><g><path fill="#472b29" d="M72.5,42h-6c-0.276,0-0.5-0.224-0.5-0.5s0.224-0.5,0.5-0.5h6c0.276,0,0.5,0.224,0.5,0.5 S72.776,42,72.5,42z"/></g><g><path fill="#fefdef" d="M51 39.478A10.522 10.522 0 1 0 51 60.522A10.522 10.522 0 1 0 51 39.478Z"/><path fill="#472b29" d="M51,61.021c-6.077,0-11.021-4.944-11.021-11.021S44.923,38.979,51,38.979S62.021,43.923,62.021,50 S57.077,61.021,51,61.021z M51,39.979c-5.525,0-10.021,4.496-10.021,10.021S45.475,60.021,51,60.021S61.021,55.525,61.021,50 S56.525,39.979,51,39.979z"/></g><g><path fill="#f15b6c" d="M35,28.478h-0.044c-1.076,0-1.956,0.88-1.956,1.956V41.87h2V28.478z"/></g><g><path fill="#8f9eb6" d="M51 43.304A6.696 6.696 0 1 0 51 56.696A6.696 6.696 0 1 0 51 43.304Z"/></g><g><path fill="#77cbd2" d="M47.652 45.218A2.391 2.391 0 1 0 47.652 50A2.391 2.391 0 1 0 47.652 45.218Z"/><path fill="#472b29" d="M47.652,50.5c-1.595,0-2.892-1.297-2.892-2.892c0-1.594,1.297-2.891,2.892-2.891 s2.892,1.297,2.892,2.891C50.544,49.203,49.247,50.5,47.652,50.5z M47.652,45.718c-1.043,0-1.892,0.848-1.892,1.891 s0.849,1.892,1.892,1.892s1.892-0.849,1.892-1.892S48.695,45.718,47.652,45.718z"/></g><g><path fill="#b77748" d="M61.5 32.5H67.5V38.5H61.5z"/><path fill="#472b29" d="M68,39h-7v-7h7V39z M62,38h5v-5h-5V38z"/></g><g><path fill="#f9e65c" d="M35 28.957H37V41.392H35z"/></g><g><path fill="#a1d3a2" d="M37 28.957H39V41.392H37z"/></g><g><path fill="#39c2d8" d="M39 28.957H41V41.392H39z"/></g><g><path fill="#472b29" d="M65.348,29.4c3.447,0,6.252,2.805,6.252,6.252v28.696c0,3.448-2.805,6.252-6.252,6.252H36.652 c-3.447,0-6.252-2.805-6.252-6.252V35.652c0-3.448,2.805-6.252,6.252-6.252H65.348 M65.348,28H36.652 C32.443,28,29,31.443,29,35.652v28.696C29,68.557,32.443,72,36.652,72h28.696C69.557,72,73,68.557,73,64.348V35.652 C73,31.443,69.557,28,65.348,28L65.348,28z"/></g><g><path fill="#b77748" d="M39.277,40.5h-5.304c-0.733,0-1.326,0.671-1.326,1.5s0.593,1.5,1.326,1.5h5.304 c0.733,0,1.326-0.671,1.326-1.5S40.01,40.5,39.277,40.5z"/><path fill="#472b29" d="M39.277,44h-5.305c-1.007,0-1.826-0.897-1.826-2s0.819-2,1.826-2h5.305c1.007,0,1.826,0.897,1.826,2 S40.284,44,39.277,44z M33.973,41c-0.455,0-0.826,0.448-0.826,1s0.371,1,0.826,1h5.305c0.455,0,0.826-0.448,0.826-1 s-0.371-1-0.826-1H33.973z"/></g><g><path fill="#472b29" d="M56.552,54.243c-0.097,0-0.194-0.027-0.28-0.086c-0.229-0.154-0.289-0.466-0.134-0.694 c0.691-1.022,1.058-2.221,1.058-3.463c0-0.276,0.224-0.5,0.5-0.5s0.5,0.224,0.5,0.5c0,1.443-0.425,2.834-1.229,4.023 C56.869,54.166,56.712,54.243,56.552,54.243z"/></g><g><path fill="#472b29" d="M51,57.195c-3.968,0-7.195-3.228-7.195-7.195s3.228-7.195,7.195-7.195 c2.566,0,4.958,1.383,6.24,3.609c0.138,0.24,0.056,0.546-0.184,0.684c-0.24,0.135-0.546,0.055-0.684-0.184 c-1.104-1.918-3.163-3.109-5.373-3.109c-3.416,0-6.195,2.779-6.195,6.195s2.779,6.195,6.195,6.195c0.276,0,0.5,0.224,0.5,0.5 S51.276,57.195,51,57.195z"/></g><g><path fill="#fdfcef" d="M36.5,73.5c0,0,1.567,0,3.5,0s3.5-1.567,3.5-3.5c0-1.781-1.335-3.234-3.055-3.455 C40.473,66.366,40.5,66.187,40.5,66c0-1.933-1.567-3.5-3.5-3.5c-1.032,0-1.95,0.455-2.59,1.165 c-0.384-1.808-1.987-3.165-3.91-3.165c-2.209,0-4,1.791-4,4c0,0.191,0.03,0.374,0.056,0.558C26.128,64.714,25.592,64.5,25,64.5 c-1.228,0-2.245,0.887-2.455,2.055C22.366,66.527,22.187,66.5,22,66.5c-1.933,0-3.5,1.567-3.5,3.5s1.567,3.5,3.5,3.5s7.5,0,7.5,0 V74h7V73.5z"/><path fill="#472b29" d="M38.25 69C38.112 69 38 68.888 38 68.75c0-1.223.995-2.218 2.218-2.218.034.009.737-.001 1.244.136.133.036.212.173.176.306-.036.134-.173.213-.306.176-.444-.12-1.1-.12-1.113-.118-.948 0-1.719.771-1.719 1.718C38.5 68.888 38.388 69 38.25 69zM31.5 73A.5.5 0 1 0 31.5 74 .5.5 0 1 0 31.5 73z"/><path fill="#472b29" d="M40,74h-3.5c-0.276,0-0.5-0.224-0.5-0.5s0.224-0.5,0.5-0.5H40c1.654,0,3-1.346,3-3 c0-1.496-1.125-2.768-2.618-2.959c-0.134-0.018-0.255-0.088-0.336-0.196s-0.115-0.244-0.094-0.377C39.975,66.314,40,66.16,40,66 c0-1.654-1.346-3-3-3c-0.85,0-1.638,0.355-2.219,1c-0.125,0.139-0.321,0.198-0.5,0.148c-0.182-0.049-0.321-0.195-0.36-0.379 C33.58,62.165,32.141,61,30.5,61c-1.93,0-3.5,1.57-3.5,3.5c0,0.143,0.021,0.28,0.041,0.418c0.029,0.203-0.063,0.438-0.242,0.54 c-0.179,0.102-0.396,0.118-0.556-0.01C25.878,65.155,25.449,65,25,65c-0.966,0-1.792,0.691-1.963,1.644 c-0.048,0.267-0.296,0.446-0.569,0.405C22.314,67.025,22.16,67,22,67c-1.654,0-3,1.346-3,3s1.346,3,3,3h7.5 c0.276,0,0.5,0.224,0.5,0.5S29.776,74,29.5,74H22c-2.206,0-4-1.794-4-4s1.794-4,4-4c0.059,0,0.116,0.002,0.174,0.006 C22.588,64.82,23.711,64,25,64c0.349,0,0.689,0.061,1.011,0.18C26.176,61.847,28.126,60,30.5,60c1.831,0,3.466,1.127,4.153,2.774 C35.333,62.276,36.155,62,37,62c2.206,0,4,1.794,4,4c0,0.048-0.001,0.095-0.004,0.142C42.739,66.59,44,68.169,44,70 C44,72.206,42.206,74,40,74z"/><path fill="#472b29" d="M34.5,73c-0.159,0-0.841,0-1,0c-0.276,0-0.5,0.224-0.5,0.5c0,0.276,0.224,0.5,0.5,0.5 c0.159,0,0.841,0,1,0c0.276,0,0.5-0.224,0.5-0.5C35,73.224,34.776,73,34.5,73z"/></g></svg>